Coordinates
version=1
nRows=11
nColumns=63
inDegrees=yes

Units are S.I. units (second, meters, Newtons, ...)
If the header above contains a line with 'inDegrees', this indicates whether rotational values are in degrees (yes) or radians (no).

endheader
time	pelvis_tilt	pelvis_list	pelvis_rotation	pelvis_tx	pelvis_ty	pelvis_tz	hip_flexion_r	hip_adduction_r	hip_rotation_r	knee_angle_r	knee_angle_r_beta	ankle_angle_r	subtalar_angle_r	mtp_angle_r	hip_flexion_l	hip_adduction_l	hip_rotation_l	knee_angle_l	knee_angle_l_beta	ankle_angle_l	subtalar_angle_l	mtp_angle_l	L5_S1_Flex_Ext	L5_S1_Lat_Bending	L5_S1_axial_rotation	L4_L5_Flex_Ext	L4_L5_Lat_Bending	L4_L5_axial_rotation	L3_L4_Flex_Ext	L3_L4_Lat_Bending	L3_L4_axial_rotation	L2_L3_Flex_Ext	L2_L3_Lat_Bending	L2_L3_axial_rotation	L1_L2_Flex_Ext	L1_L2_Lat_Bending	L1_L2_axial_rotation	L1_T12_Flex_Ext	L1_T12_Lat_Bending	L1_T12_axial_rotation	Abs_r3	Abs_r2	Abs_r1	Abs_t1	Abs_t2	neck_flexion	neck_bending	neck_rotation	arm_flex_r	arm_add_r	arm_rot_r	elbow_flex_r	pro_sup_r	wrist_flex_r	wrist_dev_r	arm_flex_l	arm_add_l	arm_rot_l	elbow_flex_l	pro_sup_l	wrist_flex_l	wrist_dev_l
      2.19047619	      4.29116718	     -6.55608110	     96.78804028	      0.23937469	      0.41405670	      0.90460172	     11.13018300	      2.63664044	    -12.01366159	     11.57362635	      0.20199789	     18.77365351	     -5.70931581	      0.00000000	      7.53272209	     -1.77078508	     -0.11154508	      3.44659990	      0.06015452	     23.02134879	      9.89193848	      0.00000000	     -0.04457722	      0.94318606	      1.24667139	     -0.08278436	      1.25443746	      1.32458835	     -0.07323592	      2.29326258	      1.32458835	     -0.05094731	      2.29326258	      1.09083747	     -0.04139441	      1.92334501	      1.01292051	     -0.02547142	      1.46099520	      0.93500354	     -0.31841064	     10.66950931	      6.93361228	      0.00000000	      0.00000000	      9.89690529	    -11.10490911	     14.29881188	    -31.60019375	    -22.68366530	    -18.31784559	    117.94377464	     88.90189356	     10.05940898	     30.78491850	     15.84909936	     -4.16188077	    127.53201993	      0.21613830	      0.78147355	     69.11732601	    -24.36235150
      2.21428571	      4.64078203	     -6.36069322	     96.49885506	      0.23858197	      0.41556030	      0.90456718	     11.07070886	      3.01484791	    -12.05272069	     11.62536608	      0.20290091	     18.33670052	     -5.72488363	      0.00000000	      7.25477850	     -2.13705711	     -0.30089050	      3.36614182	      0.05875026	     22.96699730	      9.87501722	      0.00000000	     -0.05131570	      1.01004149	      1.51253707	     -0.09529838	      1.34335518	      1.60707063	     -0.08430656	      2.45581487	      1.60707063	     -0.05864871	      2.45581487	      1.32346993	     -0.04765176	      2.05967660	      1.22893637	     -0.02932179	      1.56455427	      1.13440280	     -0.36654291	     11.42579132	      8.41227740	      0.00000000	      0.00000000	      9.14324452	    -11.96992444	     13.37469882	    -32.53111473	    -22.09207892	    -20.20623709	    120.95001112	     88.65035803	      8.81745087	     29.24423675	     16.30844069	     -3.31145542	    125.96517994	      0.23691925	      0.75810051	     69.36180266	    -24.40386684
      2.23809524	      5.01131655	     -6.08517066	     96.10534945	      0.23758063	      0.41741912	      0.90516328	     10.89537539	      3.41401775	    -11.97131975	     11.58737289	      0.20223781	     17.66073864	     -5.61466832	      0.00000000	      6.92042031	     -2.51661730	     -0.67350974	      3.32302402	      0.05799771	     22.83211655	      9.88792452	      0.00000000	     -0.06956888	      1.09148951	      1.83263470	     -0.12919637	      1.45168104	      1.94717437	     -0.11429472	      2.65384759	      1.94717437	     -0.07951028	      2.65384759	      1.60355536	     -0.06460166	      2.22576540	      1.48901570	     -0.03975166	      1.69071725	      1.37447603	     -0.49692358	     12.34714760	     10.19256442	      0.00000000	      0.00000000	      8.28980617	    -13.32995730	     11.99161451	    -33.61010844	    -21.64841665	    -21.94330342	    123.46705271	     88.45594939	      7.24023463	     27.07160547	     16.99726854	     -2.28736780	    125.20565735	      0.24761849	      0.74482444	     69.52165836	    -24.44254291
      2.26190476	      5.20604168	     -5.66450501	     95.47172121	      0.23704864	      0.41968655	      0.90644806	     10.59453584	      3.68163510	    -11.75468845	     11.57314841	      0.20198954	     16.94429449	     -5.48807231	      0.00000000	      6.44250192	     -2.76051474	     -1.67160550	      3.32771994	      0.05807967	     22.53179969	     10.27192189	      0.00000000	     -0.11215352	      1.14784578	      2.28450144	     -0.20828031	      1.52663488	      2.42728278	     -0.18425702	      2.79087222	      2.42728278	     -0.12818026	      2.79087222	      1.99893876	     -0.10414576	      2.34068711	      1.85615742	     -0.06408452	      1.77801311	      1.71337608	     -0.80110141	     12.98466099	     12.70571165	      0.00000000	      0.00000000	      7.18325844	    -14.92837334	      9.18020066	    -35.27638629	    -21.03379418	    -23.52970206	    125.32388629	     88.32820127	      4.16635465	     23.58567514	     18.34299945	     -1.21847841	    127.24428087	      0.24624911	      0.72453868	     69.63123654	    -24.47943738
      2.28571429	      5.71258119	     -5.08525796	     95.49135691	      0.23514118	      0.42219041	      0.90840152	      9.99712091	      4.16377040	    -12.23658788	     11.19863107	      0.19545298	     16.04058918	     -5.21745005	      0.00000000	      6.01431435	     -3.24724716	     -2.10512485	      3.43876191	      0.06001772	     22.28203245	     10.75809487	      0.00000000	     -0.16533740	      1.25552950	      2.65766247	     -0.30704808	      1.66985423	      2.82376637	     -0.27163281	      3.05269442	      2.82376637	     -0.18896411	      3.05269442	      2.32545466	     -0.15353231	      2.56027575	      2.15935076	     -0.09447379	      1.94481519	      1.99324685	     -1.18098848	     14.20280076	     14.78112135	      0.00000000	      0.00000000	      6.04645944	    -16.18213787	      6.91249421	    -37.03339705	    -20.22481125	    -25.85177534	    127.18944316	     88.34745110	      2.80418212	     22.38768456	     19.78558306	      0.21786360	    128.64053276	      0.24754464	      0.72634149	     69.71173060	    -24.50994006
      2.30952381	      6.08770847	     -4.34749256	     95.59549040	      0.23329799	      0.42489842	      0.91103077	      9.29795470	      4.47148029	    -12.94462516	     10.93820062	      0.19090762	     15.45703711	     -4.48206208	      0.00000000	      5.50288930	     -3.62014490	     -2.59597534	      3.61603633	      0.06311174	     22.04226140	     11.45289282	      0.00000000	     -0.24409346	      1.34655204	      3.10341660	     -0.45330597	      1.79091422	      3.29738014	     -0.40102115	      3.27400664	      3.29738014	     -0.27897442	      3.27400664	      2.71548953	     -0.22666519	      2.74588893	      2.52152599	     -0.13947500	      2.08580912	      2.32756245	     -1.74353519	     15.23246603	     17.26027212	      0.00000000	      0.00000000	      4.52776782	    -17.33842631	      3.56120620	    -38.92202584	    -18.77123416	    -28.63827114	    128.68429201	     88.47279808	      1.86155324	     21.21590829	     21.63713736	      1.81571653	    131.22977683	      0.24402275	      0.69484354	     69.76920780	    -24.55282796
      2.33333333	      6.47241829	     -3.61988377	     95.92321844	      0.23117294	      0.42749154	      0.91393784	      8.57387998	      4.76688970	    -13.78190967	     10.62028864	      0.18535900	     14.78016786	     -3.74020831	      0.00000000	      5.07843007	     -3.98639648	     -2.83503871	      3.81281624	      0.06654620	     21.76507668	     12.10827001	      0.00000000	     -0.32566118	      1.44044520	      3.51372384	     -0.60478538	      1.91579212	      3.73333158	     -0.53502876	      3.50229847	      3.73333158	     -0.37219817	      3.50229847	      3.07450836	     -0.30240897	      2.93735586	      2.85490062	     -0.18608280	      2.23124962	      2.63529288	     -2.32616527	     16.29460424	     19.54227788	      0.00000000	      0.00000000	      3.26523169	    -18.01455088	      0.36918203	    -40.62292745	    -17.20955541	    -31.52521764	    129.81407054	     88.61705577	      1.86639867	     20.37374650	     23.42681020	      3.48431718	    133.61744078	      0.24472655	      0.67900767	     69.80818094	    -24.58651841
      2.35714286	      6.70322860	     -3.01293737	     96.24067814	      0.22945373	      0.42972775	      0.91661638	      7.97296609	      4.91931106	    -14.57231600	     10.42670280	      0.18198029	     14.15155581	     -3.02834381	      0.00000000	      4.74041223	     -4.20136890	     -3.00717534	      3.95170966	      0.06897034	     21.46395688	     12.65432959	      0.00000000	     -0.39829278	      1.50834516	      3.89175154	     -0.73966953	      2.00609906	      4.13498601	     -0.65435522	      3.66739042	      4.13498601	     -0.45520882	      3.66739042	      3.40528260	     -0.36985468	      3.07581745	      3.16204813	     -0.22758450	      2.33642665	      2.91881365	     -2.84496553	     17.06270212	     21.64475454	      0.00000000	      0.00000000	      2.13520914	    -18.37979588	     -2.56444568	    -41.99696543	    -15.61854551	    -34.20581590	    130.45992197	     88.73183224	      2.73913325	     19.72453653	     25.07195366	      4.96442457	    136.32721895	      0.23944351	      0.65120550	     69.83406240	    -24.61432570
      2.38095238	      6.88794166	     -2.54629492	     96.60903824	      0.22785956	      0.43155153	      0.91872965	      7.48501599	      5.03229866	    -15.31151411	     10.29423221	      0.17966825	     13.35671616	     -2.51703463	      0.00000000	      4.51478279	     -4.35807728	     -3.00330878	      4.05554987	      0.07078270	     21.19065818	     13.00774408	      0.00000000	     -0.45399952	      1.56163558	      4.16891973	     -0.84312251	      2.07697532	      4.42947721	     -0.74587581	      3.79696074	      4.42947721	     -0.51887605	      3.79696074	      3.64780476	     -0.42158396	      3.18448727	      3.38724728	     -0.25941533	      2.41897351	      3.12668980	     -3.24287318	     17.66553399	     23.18628086	      0.00000000	      0.00000000	      1.24857838	    -18.56167654	     -4.95661786	    -42.99338322	    -14.38919403	    -36.39545723	    130.62679066	     88.80589896	      4.04969714	     19.35140677	     26.32582814	      6.14034791	    138.27440005	      0.24010668	      0.63642421	     69.84998037	    -24.63129033
      2.40476190	      7.05667417	     -2.21806518	     97.02876527	      0.22649647	      0.43284776	      0.92023681	      7.12680280	      5.14054559	    -16.15353067	     10.23359882	      0.17860999	     12.60578740	     -2.12175009	      0.00000000	      4.39608198	     -4.50559397	     -2.71382371	      4.13557512	      0.07217940	     20.94935610	     13.20323846	      0.00000000	     -0.49247789	      1.60467771	      4.35461702	     -0.91458070	      2.13422136	      4.62678058	     -0.80909193	      3.90161339	      4.62678058	     -0.56285298	      3.90161339	      3.81028989	     -0.45731497	      3.27225879	      3.53812633	     -0.28140187	      2.48564578	      3.26596276	     -3.51772035	     18.15243524	     24.21907346	      0.00000000	      0.00000000	      0.56840332	    -18.74983989	     -6.70053856	    -43.74448661	    -13.51040545	    -38.18012947	    130.41221534	     88.85378652	      5.95300489	     19.39414400	     27.19424362	      7.01647218	    139.68179442	      0.24174608	      0.62300986	     69.86021994	    -24.64368739
      2.42857143	      7.20043314	     -2.00569601	     97.54413686	      0.22483185	      0.43373832	      0.92120406	      6.89211229	      5.18061283	    -17.09470803	     10.26388422	      0.17913857	     11.86477417	     -1.78685386	      0.00000000	      4.38029417	     -4.58349423	     -2.26345624	      4.20585121	      0.07340595	     20.76398029	     13.19816268	      0.00000000	     -0.51593655	      1.64386827	      4.44987137	     -0.95814577	      2.18634480	      4.72798833	     -0.84763216	      3.99690131	      4.72798833	     -0.58966389	      3.99690131	      3.89363745	     -0.47909868	      3.35217618	      3.61552049	     -0.29480615	      2.54635195	      3.33740353	     -3.68528320	     18.59576664	     24.74884960	      0.00000000	      0.00000000	      0.25865555	    -19.05812735	     -7.91468134	    -44.35078155	    -13.02235179	    -39.70498161	    129.92000826	     88.89610657	      8.80994016	     20.34071749	     27.70528776	      7.66958616	    141.07349070	      0.24016699	      0.62027321	     69.86646417	    -24.65041653
